<svg width="4882" height="1449" viewBox="0 0 4882 1449" fill="none" xmlns="http://www.w3.org/2000/svg">
<path d="M1128 82.8C1129.2 85.2 1225.2 355.2 1183.2 628.8C1174.8 680.4 1161.6 726 1143.6 764.4C1084.8 891.6 991.2 914.4 963.6 918H829.2L796.8 766.8C736.8 891.6 644.4 914.4 618 918H483.6L301.2 77.9999H435.6L615.6 906C637.2 902.4 729.6 880.8 786 759.6C788.4 754.8 790.8 751.2 792 746.4L646.8 77.9999H781.2L961.2 906C974.4 903.6 1012.8 895.2 1052.4 864C1105.2 822 1135.2 758.4 1138.8 691.2C1152 394.8 998.4 91.2 997.2 87.6L992.4 77.9999H1126.8L1128 82.8ZM1887.56 207.6C1949.96 283.2 1988.36 386.4 1988.36 498C1988.36 729.6 1827.56 918 1629.56 918C1547.96 918 1472.36 886.8 1412.36 832.8C1395.56 820.8 1382.36 806.4 1370.36 789.6C1307.96 714 1270.76 610.8 1270.76 498C1270.76 267.6 1431.56 77.9999 1629.56 77.9999C1709.96 77.9999 1785.56 110.4 1845.56 164.4C1862.36 176.4 1876.76 190.8 1887.56 207.6ZM1845.56 624C1933.16 474 1941.56 309.6 1879.16 216C1865.96 200.4 1852.76 187.2 1838.36 174C1833.56 170.4 1827.56 166.8 1822.76 163.2C1796.36 147.6 1766.36 140.4 1735.16 140.4C1624.76 140.4 1495.16 229.2 1412.36 373.2C1325.96 523.2 1316.36 687.6 1379.96 781.2C1391.96 796.8 1405.16 810 1419.56 823.2C1425.56 826.8 1430.36 830.4 1435.16 834C1492.76 866.4 1567.16 864 1643.96 824.4C1723.16 784.8 1793.96 714 1845.56 624ZM1641.56 409.2C1645.16 450 1677.56 482.4 1719.56 487.2L1835.96 499.2L1719.56 511.2C1677.56 514.8 1645.16 547.2 1641.56 589.2L1629.56 705.6L1617.56 589.2C1612.76 547.2 1580.36 514.8 1539.56 511.2L1423.16 499.2L1539.56 487.2C1580.36 482.4 1612.76 450 1617.56 409.2L1629.56 292.8L1641.56 409.2ZM2832.4 77.9999H2954.8V918H2826.4V91.2C2778.4 91.2 2735.2 121.2 2719.6 166.8L2570.8 586.8L2586.4 632.4H2495.2L2323.6 166.8C2306.8 121.2 2263.6 91.2 2214.4 91.2V918H2087.2V77.9999C2089.6 77.9999 2090.8 77.9999 2092 77.9999H2214.4C2312.8 77.9999 2400.4 139.2 2435.2 230.4L2563.6 573.6L2710 160.8C2726.8 111.6 2773.6 77.9999 2826.4 77.9999C2828.8 77.9999 2831.2 77.9999 2832.4 77.9999ZM3216.38 91.2V468H3476.78V481.2H3216.38V906C3350.78 906 3482.78 879.6 3605.18 825.6C3666.38 798 3702.38 775.2 3703.58 775.2L3713.18 769.2V918H3087.98V77.9999H3713.18V228L3703.58 222C3702.38 222 3666.38 199.2 3605.18 171.6C3482.78 117.6 3350.78 91.2 3216.38 91.2ZM4462.77 80.4C4587.57 212.4 4553.97 495.6 4505.97 703.2C4475.97 834 4429.17 915.6 4381.17 919.2C4378.77 919.2 4375.17 919.2 4372.77 919.2C4370.37 919.2 4367.97 919.2 4364.37 919.2C4361.97 918 4359.57 918 4357.17 918C4160.37 890.4 4091.97 573.6 4069.17 313.2C4058.37 187.2 4033.17 129.6 4013.97 102C3998.37 94.7999 3981.57 91.2 3964.77 91.2H3933.57V919.2H3805.17V79.1999H3964.77C3983.97 79.1999 4003.17 82.8 4021.17 91.2C4075.17 117.6 4115.97 178.8 4129.17 255.6C4137.57 309.6 4145.97 346.8 4162.77 414C4166.37 434.4 4172.37 456 4177.17 481.2C4183.17 505.2 4187.97 529.2 4193.97 552C4235.97 741.6 4269.57 890.4 4358.37 904.8L4359.57 906C4360.77 906 4361.97 906 4363.17 906C4363.17 906 4363.17 906 4364.37 906H4365.57C4370.37 907.2 4375.17 907.2 4381.17 906C4405.17 904.8 4431.57 873.6 4454.37 823.2C4484.37 757.2 4496.37 685.2 4491.57 613.2C4467.57 240 4287.57 91.2 4286.37 89.9999L4271.97 79.1999H4460.37L4462.77 80.4Z" fill="white"/>
<path d="M81.4 1339H28.6V1023.3H81.4V1339ZM55 1006.25C55 978.75 32.45 956.75 5.5 956.75C32.45 956.75 55 934.2 55 907.25C55 934.2 77 956.75 104.5 956.75C77 956.75 55 978.75 55 1006.25ZM298.195 1024.4C396.095 1024.4 397.195 1132.2 397.195 1133.3V1339H338.345V1112.95C338.345 1091.5 330.095 1071.7 315.245 1057.95C296.545 1040.9 274.545 1037.6 249.245 1048.05C231.095 1055.2 216.245 1068.4 205.245 1084.35C199.745 1093.15 194.795 1100.85 192.045 1108V1339H139.245V1024.4H192.045V1095.35C198.095 1084.35 206.895 1071.15 218.445 1059.05C218.445 1058.5 218.995 1058.5 218.995 1058.5C237.695 1039.8 263.545 1024.4 298.195 1024.4ZM1003.32 1024.4C1013.22 1072.25 1021.47 1139.35 1011.02 1207C1007.17 1230.65 1001.12 1251.55 992.866 1269.7C965.366 1328 922.466 1337.9 910.366 1339.55V1340.1H848.766L833.366 1270.8C806.416 1328 763.516 1337.9 751.416 1339.55V1340.1H689.816L621.616 1024.4H683.216L750.316 1334.05C760.766 1332.4 803.116 1323.05 828.966 1266.95C829.516 1265.3 830.616 1263.1 831.716 1261.45L780.016 1024.4H841.616L909.266 1334.05C915.316 1333.5 932.366 1329.65 951.066 1314.8C975.266 1296.1 989.016 1266.4 990.116 1235.6C993.966 1157.5 971.966 1078.3 952.716 1024.4H1003.32ZM1117.48 1339H1064.68V1023.3H1117.48V1339ZM1091.08 1006.25C1091.08 978.75 1068.53 956.75 1041.58 956.75C1068.53 956.75 1091.08 934.2 1091.08 907.25C1091.08 934.2 1113.08 956.75 1140.58 956.75C1113.08 956.75 1091.08 978.75 1091.08 1006.25ZM1334.28 1024.4C1432.18 1024.4 1433.28 1132.2 1433.28 1133.3V1339H1374.43V1112.95C1374.43 1091.5 1366.18 1071.7 1351.33 1057.95C1332.63 1040.9 1310.63 1037.6 1285.33 1048.05C1267.18 1055.2 1252.33 1068.4 1241.33 1084.35C1235.83 1093.15 1230.88 1100.85 1228.13 1108V1339H1175.33V1024.4H1228.13V1095.35C1234.18 1084.35 1242.98 1071.15 1254.53 1059.05C1254.53 1058.5 1255.08 1058.5 1255.08 1058.5C1273.78 1039.8 1299.63 1024.4 1334.28 1024.4ZM1752.49 1201.5L1753.04 1197.1L1807.49 1226.8L1806.39 1229C1783.84 1295 1718.39 1339 1643.04 1339C1548.44 1339 1471.99 1268.05 1471.99 1181.15C1471.99 1093.7 1548.44 1023.3 1643.04 1023.3C1685.94 1023.3 1727.19 1037.6 1759.09 1064.55C1790.44 1090.95 1810.24 1127.25 1814.09 1166.3V1169.6H1561.09V1164.1H1752.49C1746.44 1087.65 1698.59 1028.8 1643.04 1028.8C1582.54 1028.8 1533.04 1097 1533.04 1181.15C1533.04 1265.3 1582.54 1333.5 1643.04 1333.5C1698.04 1333.5 1745.34 1276.85 1752.49 1201.5ZM2226.38 1026.6C2331.98 1042 2331.98 1137.15 2331.98 1138.25V1339H2152.13C2124.08 1339 2097.68 1331.85 2075.68 1317C2039.93 1293.9 2025.08 1260.9 2032.78 1224.05C2043.23 1177.3 2089.98 1136.6 2141.68 1128.9C2181.83 1123.4 2213.73 1128.9 2237.93 1137.7C2237.93 1137.7 2238.48 1137.7 2239.03 1137.7L2239.58 1138.25C2257.18 1145.4 2270.38 1154.2 2279.18 1161.35C2276.98 1119.55 2269.28 1070.6 2248.38 1046.4C2241.23 1038.15 2233.53 1033.75 2224.73 1032.1C2223.08 1031.55 2221.98 1031.55 2220.33 1031.55C2147.18 1026.6 2104.83 1128.35 2104.83 1129.45L2103.73 1132.2L2044.88 1102.5L2046.53 1099.75C2047.08 1099.2 2087.78 1024.4 2203.28 1024.4C2209.33 1024.95 2214.83 1024.95 2220.33 1025.5C2222.53 1026.05 2224.18 1026.05 2226.38 1026.6ZM2216.48 1333.5H2279.18V1168.5C2270.93 1161.35 2257.18 1150.9 2236.28 1143.2C2234.08 1142.65 2231.88 1142.1 2230.23 1142.1C2204.38 1137.15 2179.63 1138.25 2158.73 1145.4C2124.08 1155.85 2099.33 1188.85 2094.93 1229C2093.28 1243.85 2094.93 1259.25 2099.88 1272.45C2107.03 1292.25 2122.98 1307.65 2149.38 1319.75C2170.28 1329.1 2193.38 1333.5 2216.48 1333.5ZM2544.39 1024.4C2642.29 1024.4 2643.39 1132.2 2643.39 1133.3V1339H2584.54V1112.95C2584.54 1091.5 2576.29 1071.7 2561.44 1057.95C2542.74 1040.9 2520.74 1037.6 2495.44 1048.05C2477.29 1055.2 2462.44 1068.4 2451.44 1084.35C2445.94 1093.15 2440.99 1100.85 2438.24 1108V1339H2385.44V1024.4H2438.24V1095.35C2444.29 1084.35 2453.09 1071.15 2464.64 1059.05C2464.64 1058.5 2465.19 1058.5 2465.19 1058.5C2483.89 1039.8 2509.74 1024.4 2544.39 1024.4ZM2941.15 956.75H2993.95V1341.75H2839.95C2753.05 1341.75 2682.65 1271.35 2682.65 1184.45C2682.65 1097.55 2753.05 1027.15 2839.95 1027.15C2876.8 1027.15 2912.55 1039.8 2941.15 1064V956.75ZM2941.15 1336.25V1071.15C2896.6 1032.1 2829.5 1031.55 2784.95 1070.6C2753.05 1098.65 2733.25 1139.35 2733.25 1184.45C2733.25 1259.25 2788.8 1323.6 2863.05 1334.6C2870.2 1335.7 2877.35 1336.25 2885.05 1336.25H2941.15ZM3523.71 1232.3C3527.01 1277.4 3497.31 1303.25 3472.01 1316.45C3471.46 1316.45 3471.46 1316.45 3471.46 1316.45C3448.91 1328.55 3420.86 1333.5 3394.46 1333.5C3375.76 1333.5 3357.61 1331.3 3343.86 1326.9C3281.16 1307.65 3250.91 1265.85 3236.61 1233.95L3236.06 1231.75L3294.36 1215.25L3295.46 1216.9C3295.46 1217.45 3310.31 1248.25 3339.46 1274.65C3369.16 1302.7 3402.16 1316.45 3437.91 1315.9C3462.11 1315.9 3485.21 1306.55 3500.61 1288.4C3509.96 1277.95 3516.56 1264.2 3518.21 1247.7C3517.66 1231.75 3513.26 1209.75 3495.11 1195.45C3473.66 1178.95 3445.06 1185 3409.31 1193.25C3384.01 1198.75 3355.41 1204.8 3322.96 1204.8H3322.41C3281.71 1204.8 3258.61 1191.05 3245.96 1177.3C3232.76 1163.55 3230.01 1149.8 3229.46 1149.8C3223.41 1130 3228.36 1104.7 3245.96 1084.9C3272.91 1051.35 3306.46 1032.65 3344.96 1028.25C3423.61 1019.45 3498.41 1077.2 3498.96 1077.75L3501.16 1079.4L3457.71 1121.75L3456.06 1120.1C3454.96 1119 3361.46 1028.25 3272.36 1070.6C3263.56 1075 3255.86 1081.05 3249.81 1087.65C3249.26 1088.2 3248.71 1088.75 3248.71 1089.3H3248.16C3231.66 1109.1 3227.81 1133.85 3236.06 1152C3246.51 1176.2 3270.71 1178.4 3309.21 1170.15C3375.21 1155.3 3450.01 1138.25 3490.16 1165.2C3508.31 1177.85 3521.51 1204.25 3523.71 1232.3ZM3719.45 1021.65C3806.35 1021.65 3877.3 1092.05 3877.3 1178.95C3877.3 1265.85 3806.35 1336.25 3719.45 1336.25C3682.6 1336.25 3646.85 1323.05 3618.8 1299.4V1406.65H3566V1021.65H3719.45ZM3774.45 1292.8C3806.35 1264.75 3826.15 1224.05 3826.15 1178.95C3826.15 1104.15 3770.6 1039.8 3696.35 1028.8C3689.2 1027.7 3682.05 1027.15 3674.35 1027.15H3618.8V1292.25C3662.8 1331.3 3729.9 1331.85 3774.45 1292.8ZM3972.76 1339H3919.96V1023.3H3972.76V1339ZM3946.36 1006.25C3946.36 978.75 3923.81 956.75 3896.86 956.75C3923.81 956.75 3946.36 934.2 3946.36 907.25C3946.36 934.2 3968.36 956.75 3995.86 956.75C3968.36 956.75 3946.36 978.75 3946.36 1006.25ZM4244 1043.65L4245.65 1045.3L4225.85 1098.65L4222.55 1095.35C4220.9 1093.7 4197.25 1069.5 4164.25 1062.35C4131.25 1055.75 4098.25 1072.8 4083.4 1102.5V1339H4030.6V1024.4H4083.4V1090.95C4093.3 1073.9 4117.5 1040.35 4155.45 1028.8C4183.5 1020 4213.2 1025.5 4244 1043.65ZM4330.47 1339H4277.67V1023.3H4330.47V1339ZM4304.07 1006.25C4304.07 978.75 4281.52 956.75 4254.57 956.75C4281.52 956.75 4304.07 934.2 4304.07 907.25C4304.07 934.2 4326.07 956.75 4353.57 956.75C4326.07 956.75 4304.07 978.75 4304.07 1006.25ZM4534.07 1259.25L4568.72 1298.3L4567.62 1300.5C4541.77 1335.15 4503.27 1339 4486.77 1339C4482.92 1339 4480.17 1339 4479.62 1339C4427.37 1339 4385.02 1296.1 4385.02 1243.85V954H4437.82V1106.9H4513.17V1143.75L4437.82 1112.95V1251.55C4437.82 1287.3 4445.52 1326.9 4460.37 1331.3C4460.92 1331.3 4460.92 1331.3 4461.47 1331.3C4514.27 1336.8 4532.97 1265.3 4532.97 1264.2L4534.07 1259.25ZM4868.1 1232.3C4871.4 1277.4 4841.7 1303.25 4816.4 1316.45C4815.85 1316.45 4815.85 1316.45 4815.85 1316.45C4793.3 1328.55 4765.25 1333.5 4738.85 1333.5C4720.15 1333.5 4702 1331.3 4688.25 1326.9C4625.55 1307.65 4595.3 1265.85 4581 1233.95L4580.45 1231.75L4638.75 1215.25L4639.85 1216.9C4639.85 1217.45 4654.7 1248.25 4683.85 1274.65C4713.55 1302.7 4746.55 1316.45 4782.3 1315.9C4806.5 1315.9 4829.6 1306.55 4845 1288.4C4854.35 1277.95 4860.95 1264.2 4862.6 1247.7C4862.05 1231.75 4857.65 1209.75 4839.5 1195.45C4818.05 1178.95 4789.45 1185 4753.7 1193.25C4728.4 1198.75 4699.8 1204.8 4667.35 1204.8H4666.8C4626.1 1204.8 4603 1191.05 4590.35 1177.3C4577.15 1163.55 4574.4 1149.8 4573.85 1149.8C4567.8 1130 4572.75 1104.7 4590.35 1084.9C4617.3 1051.35 4650.85 1032.65 4689.35 1028.25C4768 1019.45 4842.8 1077.2 4843.35 1077.75L4845.55 1079.4L4802.1 1121.75L4800.45 1120.1C4799.35 1119 4705.85 1028.25 4616.75 1070.6C4607.95 1075 4600.25 1081.05 4594.2 1087.65C4593.65 1088.2 4593.1 1088.75 4593.1 1089.3H4592.55C4576.05 1109.1 4572.2 1133.85 4580.45 1152C4590.9 1176.2 4615.1 1178.4 4653.6 1170.15C4719.6 1155.3 4794.4 1138.25 4834.55 1165.2C4852.7 1177.85 4865.9 1204.25 4868.1 1232.3Z" fill="white"/>
</svg>
